<svg width="18" height="19" viewBox="0 0 18 19" fill="none" xmlns="http://www.w3.org/2000/svg">
    <path d="M0.89219 8.18987H1.78438V13.2881H0.89219C0.774986 13.2882 0.658906 13.2663 0.550597 13.2237C0.442288 13.181 0.343878 13.1184 0.261003 13.0395C0.178128 12.9606 0.112415 12.8669 0.067628 12.7637C0.0228411 12.6606 -0.000140035 12.55 6.41967e-07 12.4384V9.03957C-0.000140035 8.92795 0.0228411 8.8174 0.067628 8.71425C0.112415 8.6111 0.178128 8.51737 0.261003 8.43844C0.343878 8.35952 0.442288 8.29693 0.550597 8.25428C0.658906 8.21162 0.774986 8.18974 0.89219 8.18987ZM15.1672 6.91531V14.1378C15.1667 14.5884 14.9786 15.0204 14.6441 15.339C14.3095 15.6576 13.8559 15.8368 13.3828 15.8372H4.46095C3.98784 15.8368 3.53425 15.6576 3.19972 15.339C2.86518 15.0204 2.67703 14.5884 2.67657 14.1378V6.91531C2.67647 6.63633 2.7341 6.36006 2.84616 6.10229C2.95822 5.84452 3.12251 5.61031 3.32965 5.41303C3.53678 5.21576 3.78271 5.05929 4.05336 4.95257C4.32402 4.84585 4.6141 4.79096 4.90704 4.79105H8.0297V3.09165C8.0297 2.86629 8.1237 2.65017 8.29102 2.49082C8.45834 2.33147 8.68527 2.24194 8.92189 2.24194C9.15851 2.24194 9.38545 2.33147 9.55276 2.49082C9.72008 2.65017 9.81408 2.86629 9.81408 3.09165V4.79105H12.9367C13.2297 4.79096 13.5198 4.84585 13.7904 4.95257C14.0611 5.05929 14.307 5.21576 14.5141 5.41303C14.7213 5.61031 14.8856 5.84452 14.9976 6.10229C15.1097 6.36006 15.1673 6.63633 15.1672 6.91531ZM7.36056 9.03957C7.36056 8.8295 7.29515 8.62415 7.17261 8.44949C7.05007 8.27482 6.87589 8.13868 6.67211 8.05829C6.46832 7.9779 6.24409 7.95687 6.02775 7.99785C5.81142 8.03884 5.6127 8.13999 5.45673 8.28854C5.30076 8.43708 5.19455 8.62633 5.15152 8.83236C5.10848 9.0384 5.13057 9.25196 5.21498 9.44603C5.29939 9.64011 5.44233 9.80599 5.62573 9.9227C5.80913 10.0394 6.02475 10.1017 6.24532 10.1017C6.39178 10.1017 6.53681 10.0742 6.67212 10.0209C6.80743 9.9675 6.93038 9.88927 7.03394 9.79064C7.1375 9.69201 7.21965 9.57491 7.27569 9.44605C7.33173 9.31718 7.36057 9.17906 7.36056 9.03957ZM7.13751 12.4384H5.35313V13.2881H7.13751V12.4384ZM9.81408 12.4384H8.0297V13.2881H9.81408V12.4384ZM12.7137 9.03957C12.7137 8.8295 12.6483 8.62415 12.5257 8.44949C12.4032 8.27482 12.229 8.13868 12.0252 8.05829C11.8215 7.9779 11.5972 7.95687 11.3809 7.99785C11.1646 8.03884 10.9658 8.13999 10.8099 8.28854C10.6539 8.43708 10.5477 8.62633 10.5047 8.83236C10.4616 9.0384 10.4837 9.25196 10.5681 9.44603C10.6525 9.64011 10.7955 9.80599 10.9789 9.9227C11.1623 10.0394 11.3779 10.1017 11.5985 10.1017C11.7449 10.1017 11.8899 10.0742 12.0253 10.0209C12.1606 9.9675 12.2835 9.88927 12.3871 9.79064C12.4906 9.69201 12.5728 9.57491 12.6288 9.44605C12.6849 9.31718 12.7137 9.17906 12.7137 9.03957ZM12.4906 12.4384H10.7063V13.2881H12.4906V12.4384ZM17.8438 9.03957V12.4384C17.8439 12.55 17.8209 12.6606 17.7762 12.7637C17.7314 12.8669 17.6657 12.9606 17.5828 13.0395C17.4999 13.1184 17.4015 13.181 17.2932 13.2237C17.1849 13.2663 17.0688 13.2882 16.9516 13.2881H16.0594V8.18987H16.9516C17.0688 8.18974 17.1849 8.21162 17.2932 8.25428C17.4015 8.29693 17.4999 8.35952 17.5828 8.43844C17.6657 8.51737 17.7314 8.6111 17.7762 8.71425C17.8209 8.8174 17.8439 8.92795 17.8438 9.03957Z" fill="black" />
</svg>