<svg width="17" height="17" viewBox="0 0 17 17" fill="none" xmlns="http://www.w3.org/2000/svg">
<path d="M8.5 0.209595C3.80658 0.209595 0 4.01547 0 8.70959C0 12.4652 2.43525 15.6513 5.81329 16.7754C6.23758 16.854 6.375 16.5905 6.375 16.3667V14.7843C4.01058 15.2985 3.51829 13.7813 3.51829 13.7813C3.13154 12.7988 2.57408 12.5374 2.57408 12.5374C1.80271 12.0097 2.63287 12.0211 2.63287 12.0211C3.48642 12.0806 3.9355 12.8973 3.9355 12.8973C4.69342 14.1963 5.92379 13.8209 6.409 13.6035C6.48479 13.0545 6.70508 12.6791 6.94875 12.4673C5.06104 12.2513 3.07629 11.5224 3.07629 8.26618C3.07629 7.33755 3.4085 6.57964 3.95179 5.98464C3.86396 5.77001 3.57283 4.90514 4.03467 3.73497C4.03467 3.73497 4.74867 3.50689 6.37287 4.60622C7.05075 4.4178 7.7775 4.3236 8.5 4.32005C9.2225 4.3236 9.94996 4.4178 10.6292 4.60622C12.252 3.50689 12.9646 3.73497 12.9646 3.73497C13.4272 4.90585 13.136 5.77072 13.0482 5.98464C13.5936 6.57964 13.923 7.33826 13.923 8.26618C13.923 11.5309 11.9347 12.2498 10.042 12.4602C10.3466 12.7237 10.625 13.2408 10.625 14.0341V16.3667C10.625 16.5926 10.761 16.8583 11.1924 16.7747C14.5676 15.6491 17 12.4638 17 8.70959C17 4.01547 13.1941 0.209595 8.5 0.209595Z" fill="#464646"/>
</svg>
