<svg width="22" height="22" viewBox="0 0 22 22" fill="none" xmlns="http://www.w3.org/2000/svg">
<rect width="22" height="21.7274" rx="10.8637" fill="#239AA2"/>
<path fill-rule="evenodd" clip-rule="evenodd" d="M8.98913 5C8.65783 5 8.38926 5.26857 8.38926 5.59987V7.7294H5.59987C5.26857 7.7294 5 7.99797 5 8.32927C5 8.35856 5.0021 8.38736 5.00615 8.41552C5.01704 8.55277 5.07498 8.68698 5.17996 8.79196L10.1545 13.7665L8.27355 15.6474C8.2386 15.6823 8.20886 15.7205 8.18434 15.761C8.10596 15.8624 8.05933 15.9895 8.05933 16.1276C8.05933 16.4589 8.3279 16.7274 8.6592 16.7274H13.3382C13.6695 16.7274 13.9381 16.4589 13.9381 16.1276C13.9381 16.011 13.9048 15.9023 13.8473 15.8102C13.8188 15.7509 13.7799 15.6952 13.7307 15.646L11.8512 13.7665L16.8243 8.79331C16.9565 8.66107 17.0141 8.48246 16.9971 8.30982C16.9868 7.98752 16.7223 7.7294 16.3975 7.7294H13.8181V5.59987C13.8181 5.26857 13.5495 5 13.2182 5H8.98913ZM7.01383 8.92914L8.38926 10.3046V8.92914H7.01383ZM13.8181 8.92914H14.9918L13.8181 10.1028V8.92914ZM12.6183 6.19974V8.32927V11.1487C12.6183 11.1961 12.6239 11.2423 12.6343 11.2866L11.0028 12.9181L9.589 11.5043V6.19974H12.6183ZM10.0899 15.5277L11.0028 14.6148L11.9157 15.5277H10.0899Z" fill="black"/>
</svg>
