<svg width="513" height="512" viewBox="0 0 513 512" fill="none" xmlns="http://www.w3.org/2000/svg">
<rect x="0.5" width="512" height="512" rx="256" fill="#006767"/>
<path fill-rule="evenodd" clip-rule="evenodd" d="M411.351 231.609C404.295 248.121 390.535 261.084 373.492 267.076C369.514 268.474 365.357 269.493 361.064 270.088C360.908 270.674 360.747 271.258 360.581 271.839C348.803 313.103 313.196 344.316 269.592 349.645V389.627H325.557V417.61H187.044V389.627H241.61V349.465C198.701 343.653 163.763 312.742 152.066 272C151.863 271.293 151.667 270.582 151.478 269.869C146.797 269.11 142.285 267.846 138 266.134C119.128 258.597 104.66 242.384 99.5256 222.424C98.2033 217.284 97.5 211.895 97.5 206.342V146.18H147.868V114H364.732V146.18H416.5V206.342C416.5 208.461 416.398 210.555 416.198 212.621C415.551 219.305 413.882 225.687 411.351 231.609ZM388.518 206.342C388.518 222.006 378.617 235.358 364.732 240.481V174.162H388.518V206.342ZM256.3 322.469C293.49 322.469 336.75 290.996 336.75 252.688V141.982H175.851V252.602C175.851 289.496 219.051 322.469 256.3 322.469ZM147.868 174.162V239.931C142.211 237.572 137.277 233.825 133.492 229.116C128.481 222.883 125.482 214.963 125.482 206.342V174.162H147.868Z" fill="#00FFFF"/>
</svg>
