<svg width="51" height="50" viewBox="0 0 51 50" fill="none" xmlns="http://www.w3.org/2000/svg">
<rect x="0.5" width="50" height="50" rx="10" fill="#D0DDDE"/>
<path d="M26.5423 38.6829C29.1889 38.6829 32.0004 38.0135 33.2876 37.3441L32.4123 34.7283C31.4339 35.0991 29.0653 35.7788 26.7173 35.7788C19.8999 35.7788 16.2131 32.092 16.2131 25.4187C16.2131 19.1985 19.7351 14.8629 26.4599 14.8629C31.9489 14.8629 36.0373 17.973 36.027 23.8224C36.0373 28.0756 35.3782 29.9911 33.7305 29.9911C32.8551 29.9911 32.3402 29.2908 32.3299 28.2713V18.4673H29.4567V19.6207H29.3125C28.983 18.7145 27.0057 17.8803 24.771 18.1893C21.8977 18.5703 19.1378 20.9286 19.1378 25.3363C19.1378 29.8778 21.6094 32.5451 24.9666 32.6996C27.3043 32.8129 29.1168 31.7727 29.6009 30.5472H29.7244C29.9716 32.092 31.331 32.9364 33.4112 32.8232C37.8395 32.6584 39.1062 28.7038 39.0959 23.9975C39.1062 17.2315 34.5543 12 26.532 12C17.9844 12 13.0103 17.2624 13 25.4599C13.0103 33.853 17.902 38.6829 26.5423 38.6829ZM25.8214 29.744C23.1335 29.744 22.2273 27.5607 22.217 25.2127C22.2273 22.8647 23.5352 21.1449 25.842 21.1449C28.4063 21.1449 29.3537 22.4013 29.364 25.2024C29.3949 28.2095 28.4268 29.744 25.8214 29.744Z" fill="#068D96"/>
</svg>
