<svg width="2857" height="544" viewBox="0 0 2857 544" fill="none" xmlns="http://www.w3.org/2000/svg">
<rect x="17.5" y="16" width="512" height="512" rx="256" fill="#006767"/>
<path fill-rule="evenodd" clip-rule="evenodd" d="M428.351 247.609C421.295 264.121 407.535 277.084 390.492 283.076C386.514 284.474 382.357 285.493 378.064 286.088C377.908 286.674 377.747 287.258 377.581 287.839C365.803 329.103 330.196 360.316 286.592 365.645V405.627H342.557V433.61H204.044V405.627H258.61V365.465C215.701 359.653 180.763 328.742 169.066 288C168.863 287.293 168.667 286.582 168.478 285.869C163.797 285.11 159.285 283.846 155 282.134C136.128 274.597 121.66 258.384 116.526 238.424C115.203 233.284 114.5 227.895 114.5 222.342V162.18H164.868V130H381.732V162.18H433.5V222.342C433.5 224.461 433.398 226.555 433.198 228.621C432.551 235.305 430.882 241.687 428.351 247.609ZM405.518 222.342C405.518 238.006 395.617 251.358 381.732 256.481V190.162H405.518V222.342ZM273.3 338.469C310.49 338.469 353.75 306.996 353.75 268.688V157.982H192.851V268.602C192.851 305.496 236.051 338.469 273.3 338.469ZM164.868 190.162V255.931C159.211 253.572 154.277 249.825 150.492 245.116C145.481 238.883 142.482 230.963 142.482 222.342V190.162H164.868Z" fill="#00FFFF"/>
<path d="M830.172 399.428C880.156 399.428 917.116 367.748 917.116 320.58C917.116 285.732 899.868 267.78 847.42 247.364C811.164 233.284 800.604 224.484 800.604 210.404C800.604 197.028 812.572 187.172 827.708 187.172C842.844 187.172 856.22 196.676 863.964 214.98L905.148 189.284C889.66 158.66 862.908 143.172 829.116 143.172C782.3 143.172 750.972 171.332 750.972 211.46C750.972 248.068 769.628 267.076 821.372 287.844C855.516 301.572 867.484 311.076 867.484 325.156C867.484 344.868 852.348 355.428 830.876 355.428C804.476 355.428 785.82 340.292 783.004 311.428L733.724 323.748C741.116 369.508 780.188 399.428 830.172 399.428ZM1023.52 398.372C1058.72 398.372 1085.83 378.308 1097.44 345.924L1054.5 329.028C1050.63 345.924 1038.31 356.484 1022.82 356.484C995.714 356.484 986.562 332.9 986.562 308.26C986.562 283.268 996.066 258.628 1023.17 258.628C1038.66 258.628 1050.63 269.892 1054.15 287.14L1099.2 269.188C1086.18 233.988 1058.72 217.092 1023.17 217.092C965.09 217.092 937.634 262.5 937.634 308.26C937.634 353.316 964.738 398.372 1023.52 398.372ZM1195.44 398.372C1250 398.372 1283.44 355.78 1283.44 307.556C1283.44 258.98 1250.35 217.092 1195.44 217.092C1140.17 217.092 1107.44 258.98 1107.44 307.556C1107.44 355.78 1140.53 398.372 1195.44 398.372ZM1195.44 356.484C1164.81 356.484 1154.96 332.196 1154.96 307.556C1154.96 282.212 1165.17 258.628 1195.44 258.628C1226.06 258.628 1235.92 282.212 1235.92 307.556C1235.92 332.548 1225.71 356.484 1195.44 356.484ZM1405.61 217.092C1386.6 217.092 1368.3 228.708 1360.56 248.42V220.964H1312.33V394.5H1360.2V310.372C1360.2 278.692 1372.52 264.26 1394.7 264.26C1403.15 264.26 1411.24 266.724 1416.52 270.244L1439.4 227.652C1427.79 220.26 1417.23 217.092 1405.61 217.092ZM1598.08 307.204C1598.08 256.516 1570.98 217.092 1516.77 217.092C1456.93 217.092 1432.99 264.26 1432.99 308.612C1432.99 354.02 1457.63 398.372 1519.59 398.372C1549.51 398.372 1573.44 387.108 1592.1 366.34L1559.01 337.124C1548.1 350.148 1534.37 355.076 1519.94 355.076C1494.95 355.076 1482.63 342.052 1480.51 323.748H1597.03C1597.73 317.412 1598.08 312.484 1598.08 307.204ZM1480.16 287.492C1482.27 273.412 1492.13 256.868 1516.42 256.868C1536.13 256.868 1551.97 268.484 1552.67 287.492H1480.16ZM1724.34 217.092C1705.33 217.092 1687.03 224.836 1676.12 236.452V149.156H1628.25V394.5H1676.12V379.716C1688.44 393.092 1707.09 398.372 1723.64 398.372C1769.75 398.372 1795.8 359.652 1795.8 307.556C1795.8 250.18 1764.47 217.092 1724.34 217.092ZM1711.67 353.668C1682.81 353.668 1671.54 333.604 1671.54 307.908C1671.54 282.916 1682.1 260.74 1710.97 260.74C1737.01 260.74 1748.28 278.34 1748.28 307.908C1748.28 337.828 1737.01 353.668 1711.67 353.668ZM1901.16 398.372C1955.72 398.372 1989.16 355.78 1989.16 307.556C1989.16 258.98 1956.07 217.092 1901.16 217.092C1845.89 217.092 1813.16 258.98 1813.16 307.556C1813.16 355.78 1846.24 398.372 1901.16 398.372ZM1901.16 356.484C1870.53 356.484 1860.68 332.196 1860.68 307.556C1860.68 282.212 1870.88 258.628 1901.16 258.628C1931.78 258.628 1941.64 282.212 1941.64 307.556C1941.64 332.548 1931.43 356.484 1901.16 356.484ZM2087.04 217.092C2056.07 217.092 2027.2 228.356 2006.08 252.292L2040.58 281.156C2054.66 265.316 2069.44 258.628 2084.93 258.628C2104.64 258.628 2116.26 268.836 2116.26 284.676V288.548H2070.5C2052.9 288.548 2038.82 291.012 2027.56 296.644C2011.72 304.74 2002.56 319.524 2002.56 339.94C2002.56 374.084 2029.67 398.372 2067.33 398.372C2084.93 398.372 2104.29 392.036 2116.61 374.436L2120.13 394.5H2163.78V284.676C2163.78 243.14 2134.56 217.092 2087.04 217.092ZM2075.08 358.948C2058.88 358.948 2050.08 351.204 2050.08 340.644C2050.08 335.364 2052.2 331.14 2056.42 328.324C2060.64 325.156 2067.33 323.748 2077.19 323.748H2116.26C2115.91 343.812 2097.25 358.948 2075.08 358.948ZM2296.61 217.092C2277.6 217.092 2259.3 228.708 2251.56 248.42V220.964H2203.33V394.5H2251.2V310.372C2251.2 278.692 2263.52 264.26 2285.7 264.26C2294.15 264.26 2302.24 266.724 2307.52 270.244L2330.4 227.652C2318.79 220.26 2308.23 217.092 2296.61 217.092ZM2445.08 149.156V236.804C2434.52 224.836 2415.87 217.092 2397.21 217.092C2356.38 217.092 2325.05 250.18 2325.05 307.556C2325.05 359.652 2351.1 398.372 2397.21 398.372C2414.11 398.372 2433.11 393.092 2445.08 379.012V394.5H2492.6V149.156H2445.08ZM2409.53 353.668C2385.59 353.668 2372.92 337.828 2372.92 307.908C2372.92 278.34 2385.59 260.74 2409.88 260.74C2438.75 260.74 2449.31 282.916 2449.31 307.908C2449.31 333.604 2438.39 353.668 2409.53 353.668ZM2688.11 307.204C2688.11 256.516 2661.01 217.092 2606.8 217.092C2546.96 217.092 2523.03 264.26 2523.03 308.612C2523.03 354.02 2547.67 398.372 2609.62 398.372C2639.54 398.372 2663.47 387.108 2682.13 366.34L2649.04 337.124C2638.13 350.148 2624.4 355.076 2609.97 355.076C2584.98 355.076 2572.66 342.052 2570.55 323.748H2687.06C2687.76 317.412 2688.11 312.484 2688.11 307.204ZM2570.19 287.492C2572.31 273.412 2582.16 256.868 2606.45 256.868C2626.16 256.868 2642 268.484 2642.71 287.492H2570.19ZM2811.21 217.092C2792.2 217.092 2773.89 228.708 2766.15 248.42V220.964H2717.93V394.5H2765.8V310.372C2765.8 278.692 2778.12 264.26 2800.29 264.26C2808.74 264.26 2816.84 266.724 2822.12 270.244L2845 227.652C2833.38 220.26 2822.82 217.092 2811.21 217.092Z" fill="black"/>
</svg>
