<svg width="15" height="19" viewBox="0 0 15 19" fill="none" xmlns="http://www.w3.org/2000/svg">
    <path d="M5.94858 8.09126C5.46001 8.09126 5.07429 8.52876 5.07429 9.06251C5.07429 9.59626 5.46858 10.0338 5.94858 10.0338C6.43715 10.0338 6.82286 9.59626 6.82286 9.06251C6.83143 8.52876 6.43715 8.09126 5.94858 8.09126ZM9.07715 8.09126C8.58858 8.09126 8.20286 8.52876 8.20286 9.06251C8.20286 9.59626 8.59715 10.0338 9.07715 10.0338C9.56572 10.0338 9.95143 9.59626 9.95143 9.06251C9.95143 8.52876 9.56572 8.09126 9.07715 8.09126Z" fill="black" />
    <path d="M13.2429 0.75H1.75714C0.788571 0.75 0 1.555 0 2.5525V14.3825C0 15.38 0.788571 16.185 1.75714 16.185H11.4771L11.0229 14.5662L12.12 15.6075L13.1571 16.5875L15 18.25V2.5525C15 1.555 14.2114 0.75 13.2429 0.75ZM9.93428 12.1775C9.93428 12.1775 9.62571 11.8012 9.36857 11.4688C10.4914 11.145 10.92 10.4275 10.92 10.4275C10.5686 10.6638 10.2343 10.83 9.93428 10.9437C9.50571 11.1275 9.09428 11.25 8.69143 11.32C7.86857 11.4775 7.11428 11.4337 6.47143 11.3112C5.98286 11.215 5.56286 11.075 5.21143 10.935C5.01429 10.8562 4.8 10.76 4.58571 10.6375C4.56 10.62 4.53429 10.6112 4.50857 10.5938C4.49143 10.585 4.48286 10.5762 4.47428 10.5675C4.32 10.48 4.23429 10.4187 4.23429 10.4187C4.23429 10.4187 4.64571 11.1187 5.73428 11.4513C5.47714 11.7838 5.16 12.1775 5.16 12.1775C3.26571 12.1163 2.54571 10.8475 2.54571 10.8475C2.54571 8.03 3.78 5.74625 3.78 5.74625C5.01428 4.80125 6.18857 4.8275 6.18857 4.8275L6.27428 4.9325C4.73143 5.3875 4.02 6.07875 4.02 6.07875C4.02 6.07875 4.20857 5.97375 4.52571 5.825C5.44286 5.41375 6.17143 5.3 6.47143 5.27375C6.52286 5.265 6.56571 5.25625 6.61714 5.25625C7.14 5.18625 7.73143 5.16875 8.34857 5.23875C9.16286 5.335 10.0371 5.58 10.9286 6.07875C10.9286 6.07875 10.2514 5.4225 8.79428 4.9675L8.91428 4.8275C8.91428 4.8275 10.0886 4.80125 11.3229 5.74625C11.3229 5.74625 12.5571 8.03 12.5571 10.8475C12.5571 10.8475 11.8286 12.1163 9.93428 12.1775Z" fill="black" />
</svg>