<svg width="512" height="512" viewBox="0 0 512 512" fill="none" xmlns="http://www.w3.org/2000/svg">
<rect width="512" height="512" rx="256" fill="#F1C657"/>
<path fill-rule="evenodd" clip-rule="evenodd" d="M410.851 231.609C403.795 248.121 390.035 261.084 372.992 267.076C369.014 268.474 364.857 269.493 360.564 270.088C360.408 270.674 360.247 271.258 360.081 271.839C348.303 313.103 312.696 344.316 269.092 349.645V389.627H325.057V417.61H186.544V389.627H241.11V349.465C198.201 343.653 163.263 312.742 151.566 272C151.363 271.293 151.167 270.582 150.978 269.869C146.297 269.11 141.785 267.846 137.5 266.134C118.628 258.597 104.16 242.384 99.0256 222.424C97.7033 217.284 97 211.895 97 206.342V146.18H147.368V114H364.232V146.18H416V206.342C416 208.461 415.898 210.555 415.698 212.621C415.051 219.305 413.382 225.687 410.851 231.609ZM388.018 206.342C388.018 222.006 378.117 235.358 364.232 240.481V174.162H388.018V206.342ZM255.8 322.469C292.99 322.469 336.25 290.996 336.25 252.688V141.982H175.351V252.602C175.351 289.496 218.551 322.469 255.8 322.469ZM147.368 174.162V239.931C141.711 237.572 136.777 233.825 132.992 229.116C127.981 222.883 124.982 214.963 124.982 206.342V174.162H147.368Z" fill="black"/>
</svg>
