<svg width="27" height="23" viewBox="0 0 27 23" fill="none" xmlns="http://www.w3.org/2000/svg">
    <path d="M5.7 22.724C4.12933 22.724 2.78667 22.0907 1.672 20.824C0.557333 19.5067 0 17.86 0 15.884C0 13.9587 0.430667 11.9827 1.292 9.956C2.15333 7.87867 3.344 5.95333 4.864 4.18C6.384 2.40667 8.10667 1.01333 10.032 0L12.236 4.56C10.9187 5.67467 9.804 6.71333 8.892 7.676C8.03067 8.63867 7.42267 9.956 7.068 11.628C7.92933 11.628 8.84133 12.1853 9.804 13.3C10.7667 14.4147 11.248 15.6813 11.248 17.1C11.248 18.4173 10.716 19.684 9.652 20.9C8.588 22.116 7.27067 22.724 5.7 22.724ZM19.76 22.724C18.1893 22.724 16.8467 22.0907 15.732 20.824C14.6173 19.5067 14.06 17.86 14.06 15.884C14.06 13.9587 14.4907 11.9827 15.352 9.956C16.2133 7.87867 17.404 5.95333 18.924 4.18C20.444 2.40667 22.1413 1.01333 24.016 0L26.296 4.56C24.9787 5.67467 23.864 6.71333 22.952 7.676C22.0907 8.63867 21.4827 9.956 21.128 11.628C21.6853 11.628 22.2933 11.9067 22.952 12.464C23.6107 12.9707 24.168 13.6293 24.624 14.44C25.1307 15.2507 25.384 16.1373 25.384 17.1C25.384 18.4173 24.8267 19.684 23.712 20.9C22.648 22.116 21.3307 22.724 19.76 22.724Z" fill="#FFF" />
</svg>